<svg version="1" xmlns="http://www.w3.org/2000/svg" width="682.667" height="682.667" viewBox="0 0 512.000000 512.000000"><path d="M144.7 1.4c-8.8 3.3-15.3 11.3-16.4 20.4l-.5 4.9-3.7-.8c-10.5-2.4-22.9 4.1-27.7 14.6C94.6 44.3 94 47.3 94 53v7.6l-6.5-.4c-11.4-.7-20.6 4.5-25.1 14.3l-2.4 5v55.6c0 69.7.3 71.6 14.5 100.4 9.3 18.7 10.5 24.2 10.5 47V299H74.4c-13.8 0-17.7 1.2-23.9 7.5-5.9 5.9-7.8 10.8-7.4 19.8l.3 6.2-13 .5c-13.7.6-15.9 1.2-22.3 6.6-6.5 5.4-9.7 17-7.2 26 2.5 9.3 11.3 16.9 20.8 18.1l5 .5-.8 4.2c-2 10.9 4.2 22.4 14.6 27.2 3.8 1.8 6.8 2.4 12.5 2.4h7.6l-.4 6.5c-.7 11.4 4.5 20.6 14.3 25.1l5 2.4h55.6c69.7 0 71.6-.3 100.4-14.5 18.7-9.3 24.2-10.5 47-10.5H299v10.6c0 13.8 1.2 17.7 7.5 23.9 5.9 5.9 10.8 7.8 19.8 7.4l6.2-.3.5 13c.6 13.7 1.2 15.9 6.6 22.3 5.4 6.5 17 9.7 26 7.2 9.3-2.5 16.9-11.3 18.1-20.8l.5-5 4.2.8c10.9 2 22.4-4.2 27.2-14.6 1.8-3.8 2.4-6.8 2.4-12.5v-7.6l6.5.4c11.4.7 20.6-4.5 25.1-14.3l2.4-5v-55.6c0-69.7-.3-71.6-14.5-100.4-9.3-18.7-10.5-24.2-10.5-47V213h10.6c13.8 0 17.7-1.2 23.9-7.5 5.9-5.9 7.8-10.8 7.4-19.8l-.3-6.2 13-.5c13.7-.6 15.9-1.2 22.3-6.6 6.5-5.4 9.7-17 7.2-26-2.5-9.3-11.3-16.9-20.8-18.1l-5-.5.8-4.2c2-10.9-4.2-22.4-14.6-27.2-3.8-1.8-6.8-2.4-12.5-2.4h-7.6l.4-6.5c.7-11.4-4.5-20.6-14.3-25.1l-5-2.4h-55.6c-69.7 0-71.6.3-100.4 14.5-18.7 9.3-24.2 10.5-47 10.5H213V74.4c0-13.8-1.2-17.7-7.5-23.9-5.9-5.9-10.8-7.8-19.8-7.4l-6.2.3-.5-13c-.6-13.7-1.2-15.9-6.6-22.3-1.5-1.8-4.5-4.1-6.8-5.3C160.4.1 150-.6 144.7 1.4zm14.4 18.5l2.9 2.9v125.4l2.9 2.9c3.6 3.6 7 3.7 11 .3l3-2.5.3-42 .3-42.1 2.8-2.4c4.3-3.7 10.4-2.6 12.6 2.3.8 1.7 1.1 22.2 1.1 68.4v66.1l2.9 2.9c2.8 2.8 3.3 2.9 12.5 2.9 10.8 0 10.5-.3 8 8.1-3 10.2-8.4 18.9-17 27.5-4.6 4.5-9.4 10.4-11 13.5-2.8 5.3-2.9 5.9-3.4 24.9l-.5 19.5-42.1.3-42.1.2-.6-19.2c-.7-24.6-2.2-31-12.2-51.3-8.1-16.6-10.8-24.5-12.4-36-1.5-10.7-1.5-107.6 0-110.8 2.4-5.2 8.7-6 13-1.8l2.9 2.9v65.4l2.9 2.9c1.8 1.7 4 2.9 5.6 2.9 1.6 0 3.8-1.2 5.6-2.9l2.9-2.9V99.1c0-33.8.3-49.8 1.1-51.4 1.1-2.5 4.7-4.7 7.4-4.7s6.3 2.2 7.4 4.7c.8 1.6 1.1 17.6 1.1 51.4v49.1l2.9 2.9c1.8 1.7 4 2.9 5.6 2.9 1.6 0 3.8-1.2 5.6-2.9l2.9-2.9V22.8l2.9-2.9c1.8-1.7 4-2.9 5.6-2.9 1.6 0 3.8 1.2 5.6 2.9zm271.2 58.2c5.2 2.4 6 8.7 1.8 13l-2.9 2.9h-32.1c-33.9 0-36 .3-38 4.7-1.8 3.9-1.3 6.3 1.8 9.4l2.9 2.9h49.1c33.8 0 49.8.3 51.4 1.1 2.5 1.1 4.7 4.7 4.7 7.4s-2.2 6.3-4.7 7.4c-1.6.8-17.6 1.1-51.4 1.1h-49.1l-2.9 2.9c-1.7 1.8-2.9 4-2.9 5.6 0 1.6 1.2 3.8 2.9 5.6l2.9 2.9h125.4l2.9 2.9c1.7 1.8 2.9 4 2.9 5.6 0 1.6-1.2 3.8-2.9 5.6l-2.9 2.9H363.8l-2.9 2.9c-3.6 3.6-3.7 7-.3 11l2.5 3 42 .3 42.1.3 2.4 2.8c3.7 4.3 2.6 10.4-2.3 12.6-1.7.8-22.2 1.1-68.4 1.1h-66.1l-2.9 2.9c-2.8 2.8-2.9 3.3-2.9 12.5 0 10.8.3 10.5-8.1 8-10.2-3-18.9-8.4-27.5-17-4.5-4.6-10.4-9.4-13.5-11-5.3-2.8-5.9-2.9-24.9-3.4l-19.5-.5-.3-42.3-.2-42.2h13.2c26.2 0 39-2.9 58.8-13.1 12.1-6.3 23.7-10.4 33.5-11.8 9.4-1.3 108.9-1.3 111.8 0zM248.8 206.5c2.1.9 6.7 4.5 10.1 8.1 7.1 7.3 15.4 13.2 24.4 17.4 6.8 3.2 16.6 6 20.9 6 2.5 0 2.8.3 2.8 3.5 0 5.8-2.8 10.8-9.6 17.4-7.3 7.1-13.2 15.4-17.4 24.4-3.2 6.8-6 16.6-6 20.9 0 2.5-.3 2.8-3.5 2.8-5.8 0-10.8-2.8-17.4-9.6-7.1-7.3-15.4-13.2-24.4-17.4-6.8-3.2-16.6-6-20.9-6-2.5 0-2.8-.3-2.8-3.5 0-5.8 2.8-10.8 9.6-17.4 7.3-7.1 13.2-15.4 17.4-24.4 3.2-6.8 6-16.6 6-20.9 0-2.5.3-2.8 3.5-2.8 1.9 0 5.2.7 7.3 1.5zm160.5 25.7c.7 24.6 2.2 31 12.2 51.3 8.1 16.6 10.8 24.5 12.4 36 1.5 10.7 1.5 107.6 0 110.8-2.4 5.2-8.7 6-13 1.8l-2.9-2.9v-65.4l-2.9-2.9c-3.8-3.8-7.4-3.8-11.2 0l-2.9 2.9v49.1c0 33.8-.3 49.8-1.1 51.4-1.1 2.5-4.7 4.7-7.4 4.7s-6.3-2.2-7.4-4.7c-.8-1.6-1.1-17.6-1.1-51.4v-49.1l-2.9-2.9c-3.8-3.8-7.4-3.8-11.2 0l-2.9 2.9v125.4l-2.9 2.9c-3.8 3.8-7.4 3.8-11.2 0l-2.9-2.9V363.8l-2.9-2.9c-1.6-1.6-3.9-2.9-5-2.9-3.1 0-6.8 2-8 4.4-.7 1.4-1.2 15.7-1.3 43.4l-.3 41.4-2.8 2.4c-4.3 3.7-10.4 2.6-12.6-2.3-.8-1.7-1.1-22.2-1.1-68.4v-66.1l-2.9-2.9c-2.8-2.8-3.3-2.9-12.5-2.9-10.8 0-10.5.3-8-8.1 3-10.2 8.4-18.9 17-27.5 4.6-4.5 9.4-10.4 11-13.5 2.8-5.3 2.9-5.8 3.2-23.9.1-10.2.5-19.1.7-19.8.3-.9 9.7-1.2 42.3-1.2h41.9l.6 19.2zm-196.2 60.4c10.2 3 18.9 8.4 27.5 17 4.5 4.6 10.4 9.4 13.5 11 5.3 2.8 5.9 2.9 24.9 3.4l19.5.5.3 42.1.2 42.1-19.2.6c-24.6.7-31 2.2-51.3 12.2-16.6 8.1-24.5 10.8-36 12.4-10.7 1.5-107.6 1.5-110.8 0-5.2-2.4-6-8.7-1.8-13l2.9-2.9h65.4l2.9-2.9c3.8-3.8 3.8-7.4 0-11.2l-2.9-2.9H99.1c-33.8 0-49.8-.3-51.4-1.1-2.5-1.1-4.7-4.7-4.7-7.4s2.2-6.3 4.7-7.4c1.6-.8 17.6-1.1 51.4-1.1h49.1l2.9-2.9c1.7-1.8 2.9-4 2.9-5.6 0-1.6-1.2-3.8-2.9-5.6l-2.9-2.9H22.8l-2.9-2.9c-3.8-3.8-3.8-7.4 0-11.2l2.9-2.9h125.4l2.9-2.9c3.6-3.6 3.7-7 .3-11l-2.5-3-42-.3-42.1-.3-2.5-2.9c-2-2.4-2.4-3.6-1.9-6.5 1.1-7-3.7-6.5 71.7-7.1l68.1-.5 2.4-2.8c2.2-2.5 2.4-3.7 2.4-12.3 0-10.6-.3-10.3 8.1-7.8z"/></svg>