<svg version="1" xmlns="http://www.w3.org/2000/svg" width="682.667" height="682.667" viewBox="0 0 512.000000 512.000000"><path d="M144.2 1.6C135.9 4.7 128 15.5 128 24c0 2.6 0 2.6-6.5 2.2-7.7-.5-13.9 1.4-19.2 6.1-5.5 4.8-7.6 10-8.1 19.8l-.4 8.7-6.4-.6c-11.2-.9-20.5 4.4-25 14.3l-2.4 5v55.1c0 59.4.3 63.8 5.5 80.1 1.3 4.3 4.3 11.4 6.6 15.8C80 245.4 81 247.8 83 256.2c1.6 6.6 2 11.8 2 25.5V299H73.8c-9.7 0-12 .3-16.3 2.4-9.8 4.5-15 13.7-14.3 25.1l.4 6.5H32c-7 .1-13 .6-15.3 1.4-17.4 6.2-22.3 28.8-9.1 42C12 380.8 18.8 384 24 384c2.6 0 2.6 0 2.2 6.5-.5 7.7 1.4 13.9 6.1 19.2 4.8 5.5 10 7.6 19.8 8.1l8.7.4-.6 6.4c-.9 11.2 4.4 20.5 14.3 25l5 2.4h55.1c60.6 0 64.5-.3 81.9-6.1 4.9-1.6 12.8-5.1 17.5-7.8 16.7-9.3 24.3-11.1 48.1-11.1H299v11.2c0 9.7.3 12 2.4 16.3 4.5 9.8 13.7 15 25.1 14.3l6.5-.4V480c.1 7 .6 13 1.4 15.3 6.2 17.4 28.8 22.3 42 9.1 4.4-4.4 7.6-11.2 7.6-16.4 0-2.6 0-2.6 6.5-2.2 7.7.5 13.9-1.4 19.2-6.1 5.5-4.8 7.6-10 8.1-19.8l.4-8.7 6.4.6c11.2.9 20.5-4.4 25-14.3l2.4-5v-55.1c0-59.4-.3-63.8-5.5-80.1-1.3-4.3-4.3-11.4-6.6-15.8-11.8-22.4-12.1-23.5-12.7-48.8l-.4-19.7h11.4c9.7 0 12-.3 16.3-2.4 9.8-4.5 15-13.7 14.3-25.1l-.4-6.5H480c7-.1 13-.6 15.3-1.4 17.4-6.2 22.3-28.8 9.1-42-4.4-4.4-11.2-7.6-16.4-7.6-2.6 0-2.6 0-2.2-6.5.5-7.7-1.4-13.9-6.1-19.2-4.8-5.5-10-7.6-19.8-8.1l-8.7-.4.6-6.4c.9-11.2-4.4-20.5-14.3-25l-5-2.4h-55.1c-59.4 0-63.8.3-80.1 5.5-4.3 1.3-11.4 4.3-15.8 6.6C266.6 80 264.2 81 255.8 83c-6.6 1.6-11.8 2-25.5 2H213V73.7c0-9.6-.3-11.9-2.4-16.2-4.5-9.8-13.7-15-25.1-14.3l-6.5.4V32c-.1-16.3-3.1-23-12.6-28.6-5.7-3.4-15.7-4.2-22.2-1.8zm13.1 16.5c1.4.6 3 2.2 3.6 3.6.8 1.7 1.1 21.1 1.1 64.3v61.9l2.3 2.5c1.2 1.5 3.6 2.9 5.4 3.2 2.7.5 3.7.1 6.3-2.4l3-3V65.8l2.9-2.9c3.8-3.7 8.2-3.9 11.6-.4l2.5 2.4v134.3l2.9 2.9c2.8 2.8 3.3 2.9 12.5 2.9 11.1 0 10.9-.3 7.6 9.8-3.2 9.7-8.6 18-17.2 26.5-5.4 5.3-8.9 9.8-10.6 13.5-2.5 5.4-2.7 6.8-3.2 24.7l-.5 19h-85l-.6-21c-.7-26.5-1.8-30.5-13.2-52.7-11.2-21.8-11.1-21.1-11.5-87L76.9 82l2.5-2.5c3.5-3.5 7.9-3.3 11.7.4l2.9 2.9v65.4l3 3c2.6 2.5 3.6 2.9 6.3 2.4 1.8-.4 4.1-1.5 5.2-2.7 1.9-1.9 2-3.6 2.5-53l.5-51.1 2.4-1.9c2.6-2.1 7.8-2.5 10.2-.6 3.8 2.9 3.9 4.4 3.9 54.7v49.2l2.9 2.9c1.8 1.7 4 2.9 5.6 2.9 1.6 0 3.8-1.2 5.6-2.9l2.9-2.9V22.8l2.9-2.9c3.1-3.1 5.5-3.6 9.4-1.8zm275.2 61.4c3.5 3.4 3.3 7.8-.4 11.6l-2.9 2.9h-65.4l-3 3c-2.5 2.6-2.9 3.6-2.4 6.3.4 1.8 1.5 4.1 2.7 5.2 1.9 1.9 3.6 2 53 2.5l51.1.5 1.9 2.4c2.1 2.6 2.5 7.8.6 10.2-2.9 3.8-4.4 3.9-54.7 3.9h-49.2l-2.9 2.9c-1.7 1.8-2.9 4-2.9 5.6 0 1.6 1.2 3.8 2.9 5.6l2.9 2.9h125.4l2.9 2.9c4.2 4.3 3.4 10.6-1.8 13-1.7.8-21.1 1.1-64.3 1.1h-61.9l-2.5 2.2c-1.5 1.3-2.9 3.7-3.2 5.5-.5 2.7-.1 3.7 2.4 6.3l3 3h82.4l2.9 2.9c3.7 3.8 3.9 8.2.4 11.6l-2.4 2.5H312.8l-2.9 2.9c-2.8 2.8-2.9 3.3-2.9 12.5 0 11.2.2 11-10.3 7.5-9.1-3-19.3-9.8-26.9-17.9-4.6-4.8-8.5-7.9-12.5-9.8-5.5-2.6-6.7-2.7-24.8-3.2l-19-.5v-85l21-.6c26-.7 32-2.2 50.9-12.3 22.3-12 25.4-12.4 91.4-12.5l53.3-.1 2.4 2.5zM248.7 206.1c1.5.6 6.4 4.5 10.8 8.8 9.2 8.9 15.1 13.1 23.9 17.1 6.8 3.1 16.9 6 21 6 2.4 0 2.6.4 2.6 3.9 0 6.2-1.6 9-9.9 17.6-8.3 8.6-12.3 14-16.4 22.2-3 5.8-6.7 18.4-6.7 22.5 0 2.6-.3 2.8-3.9 2.8-6.2 0-9-1.6-17.6-9.9-8.6-8.3-14-12.3-22.2-16.4-5.8-3-18.4-6.7-22.5-6.7-2.6 0-2.8-.3-2.8-3.9 0-6.2 1.5-8.9 10.4-18.1 12.4-12.9 20.7-28.5 22.3-42.1l.6-4.9h3.8c2.1 0 5 .5 6.6 1.1zm161.4 28.4c.7 26.5 1.8 30.5 13.2 52.7 11.3 22 11.2 21.1 11.2 87.5 0 62.5.4 58.8-6.8 60-3.1.5-4 .1-6.7-2.5l-3-3v-65.4l-3-3c-2.6-2.5-3.6-2.9-6.3-2.4-1.8.4-4.1 1.5-5.2 2.7-1.9 1.9-2 3.6-2.5 53l-.5 51.1-2.4 1.9c-2.6 2.1-7.8 2.5-10.2.6-3.8-2.9-3.9-4.4-3.9-54.7v-49.2l-2.9-2.9c-3.8-3.8-7.4-3.8-11.2 0l-2.9 2.9v125.4l-2.9 2.9c-4.3 4.2-10.6 3.4-13-1.8-.8-1.7-1.1-21.1-1.1-64.3v-61.9l-2.2-2.5c-1.3-1.5-3.7-2.9-5.5-3.2-2.7-.5-3.7-.1-6.3 2.4l-3 3v82.4l-2.9 2.9c-3.8 3.7-8.2 3.9-11.6.4l-2.5-2.4V312.8l-2.9-2.9c-2.8-2.8-3.3-2.9-12.5-2.9-11.2 0-11 .2-7.5-10.3 3-9.1 9.8-19.3 17.9-26.9 4.8-4.6 7.9-8.5 9.8-12.5 2.6-5.5 2.7-6.6 3-23.8.1-9.9.5-18.6.7-19.3.4-1 9.4-1.2 42.7-1l42.3.3.6 21zm-194.8 58.6c9.1 3 19.3 9.8 26.9 17.9 4.6 4.8 8.5 7.9 12.5 9.8 5.5 2.6 6.7 2.7 24.8 3.2l19 .5v85l-21 .6c-26.5.7-30.5 1.8-52.7 13.2-21.8 11.2-21.1 11.1-87 11.5l-55.8.3-2.5-2.5c-3.5-3.5-3.3-7.9.4-11.7l2.9-2.9h65.4l3-3c2.5-2.6 2.9-3.6 2.4-6.3-.4-1.8-1.5-4.1-2.7-5.2-1.9-1.9-3.6-2-53-2.5l-51.1-.5-1.9-2.4c-2.4-3-2.4-8.2 0-11.2l1.9-2.4L98 384l51.2-.5 2.4-2.8c3.2-3.8 3.1-7.2-.5-10.8l-2.9-2.9H22.8l-2.9-2.9c-4.2-4.3-3.4-10.6 1.8-13 1.7-.8 21.1-1.1 64.3-1.1h61.9l2.5-2.3c1.5-1.2 2.9-3.6 3.2-5.4.5-2.7.1-3.7-2.4-6.3l-3-3H65.8l-2.9-2.9c-3.7-3.8-3.9-8.2-.4-11.6l2.4-2.5h134.3l2.9-2.9c2.8-2.8 2.9-3.3 2.9-12.5 0-11.2-.2-11 10.3-7.5z"/></svg>