<svg height="464pt" viewBox="-32 0 464 464.01491" width="464pt" xmlns="http://www.w3.org/2000/svg"><path d="m342.40625 68.136719c-20.386719-42.277344-63.472656-68.859375-110.398438-68.121094-39.203124-.402344-76.226562 17.996094-99.578124 49.488281-6.761719-.984375-13.585938-1.484375-20.421876-1.488281-53.015624 0-96 28.65625-96 64s42.984376 64 96 64c6.835938-.007813 13.660157-.503906 20.421876-1.488281 23.351562 31.492187 60.375 49.890625 99.578124 49.488281 31.085938.1875 61.113282-11.300781 84.136719-32.191406 1.285157.070312 2.558594.191406 3.863281.191406 30.882813-.09375 57.292969-22.222656 62.789063-52.613281 5.492187-30.386719-11.496094-60.367188-40.390625-71.265625zm0 0" fill="#e9cfb7"/><path d="m384.007812 128.015625c0 35.34375-28.652343 64-64 64-35.347656 0-64-28.65625-64-64 0-35.347656 28.652344-64 64-64 35.347657 0 64 28.652344 64 64zm0 0" fill="#a3d4f7"/><path d="m208.007812 112.015625c0-35.347656-42.980468-64-96-64-53.019531 0-96 28.652344-96 64 0 35.34375 42.980469 64 96 64 53.019532 0 96-28.65625 96-64zm0 0" fill="#fef1d8"/><path d="m336.007812 464.015625h-272l-48-320h368zm0 0" fill="#83acb1"/><g fill="#e9cfb7"><path d="m216.007812 328.015625c-4.417968 0-8-3.582031-8-8v-32c0-4.417969 3.582032-8 8-8 4.417969 0 8 3.582031 8 8v32c0 4.417969-3.582031 8-8 8zm0 0"/><path d="m248.007812 328.015625c-4.417968 0-8-3.582031-8-8v-32c0-4.417969 3.582032-8 8-8 4.417969 0 8 3.582031 8 8v32c0 4.417969-3.582031 8-8 8zm0 0"/><path d="m280.007812 328.015625c-4.417968 0-8-3.582031-8-8v-32c0-4.417969 3.582032-8 8-8 4.417969 0 8 3.582031 8 8v32c0 4.417969-3.582031 8-8 8zm0 0"/><path d="m312.007812 328.015625c-4.417968 0-8-3.582031-8-8v-32c0-4.417969 3.582032-8 8-8 4.417969 0 8 3.582031 8 8v32c0 4.417969-3.582031 8-8 8zm0 0"/><path d="m88.007812 328.015625c-4.417968 0-8-3.582031-8-8v-32c0-4.417969 3.582032-8 8-8 4.417969 0 8 3.582031 8 8v32c0 4.417969-3.582031 8-8 8zm0 0"/><path d="m120.007812 328.015625c-4.417968 0-8-3.582031-8-8v-32c0-4.417969 3.582032-8 8-8 4.417969 0 8 3.582031 8 8v32c0 4.417969-3.582031 8-8 8zm0 0"/><path d="m152.007812 328.015625c-4.417968 0-8-3.582031-8-8v-32c0-4.417969 3.582032-8 8-8 4.417969 0 8 3.582031 8 8v32c0 4.417969-3.582031 8-8 8zm0 0"/><path d="m184.007812 328.015625c-4.417968 0-8-3.582031-8-8v-32c0-4.417969 3.582032-8 8-8 4.417969 0 8 3.582031 8 8v32c0 4.417969-3.582031 8-8 8zm0 0"/><path d="m200.007812 248.015625c-4.417968 0-8-3.582031-8-8v-32c0-4.417969 3.582032-8 8-8 4.417969 0 8 3.582031 8 8v32c0 4.417969-3.582031 8-8 8zm0 0"/><path d="m232.007812 248.015625c-4.417968 0-8-3.582031-8-8v-32c0-4.417969 3.582032-8 8-8 4.417969 0 8 3.582031 8 8v32c0 4.417969-3.582031 8-8 8zm0 0"/><path d="m264.007812 248.015625c-4.417968 0-8-3.582031-8-8v-32c0-4.417969 3.582032-8 8-8 4.417969 0 8 3.582031 8 8v32c0 4.417969-3.582031 8-8 8zm0 0"/><path d="m296.007812 248.015625c-4.417968 0-8-3.582031-8-8v-32c0-4.417969 3.582032-8 8-8 4.417969 0 8 3.582031 8 8v32c0 4.417969-3.582031 8-8 8zm0 0"/><path d="m328.007812 248.015625c-4.417968 0-8-3.582031-8-8v-32c0-4.417969 3.582032-8 8-8 4.417969 0 8 3.582031 8 8v32c0 4.417969-3.582031 8-8 8zm0 0"/><path d="m232.007812 408.015625c-4.417968 0-8-3.582031-8-8v-32c0-4.417969 3.582032-8 8-8 4.417969 0 8 3.582031 8 8v32c0 4.417969-3.582031 8-8 8zm0 0"/><path d="m264.007812 408.015625c-4.417968 0-8-3.582031-8-8v-32c0-4.417969 3.582032-8 8-8 4.417969 0 8 3.582031 8 8v32c0 4.417969-3.582031 8-8 8zm0 0"/><path d="m296.007812 408.015625c-4.417968 0-8-3.582031-8-8v-32c0-4.417969 3.582032-8 8-8 4.417969 0 8 3.582031 8 8v32c0 4.417969-3.582031 8-8 8zm0 0"/><path d="m104.007812 408.015625c-4.417968 0-8-3.582031-8-8v-32c0-4.417969 3.582032-8 8-8 4.417969 0 8 3.582031 8 8v32c0 4.417969-3.582031 8-8 8zm0 0"/><path d="m136.007812 408.015625c-4.417968 0-8-3.582031-8-8v-32c0-4.417969 3.582032-8 8-8 4.417969 0 8 3.582031 8 8v32c0 4.417969-3.582031 8-8 8zm0 0"/><path d="m168.007812 408.015625c-4.417968 0-8-3.582031-8-8v-32c0-4.417969 3.582032-8 8-8 4.417969 0 8 3.582031 8 8v32c0 4.417969-3.582031 8-8 8zm0 0"/><path d="m200.007812 408.015625c-4.417968 0-8-3.582031-8-8v-32c0-4.417969 3.582032-8 8-8 4.417969 0 8 3.582031 8 8v32c0 4.417969-3.582031 8-8 8zm0 0"/></g><path d="m.0078125 112.015625h399.9999995v32h-399.9999995zm0 0" fill="#326859"/><path d="m200.007812 176.015625-32-64h176zm0 0" fill="#a3d4f7"/><path d="m72.007812 112.015625h96v144h-96zm0 0" fill="#e9cfb7"/><path d="m72.007812 216.015625h96v16h-96zm0 0" fill="#fff"/></svg>