<?xml version="1.0" encoding="iso-8859-1"?>
<!-- Generator: Adobe Illustrator 19.0.0, SVG Export Plug-In . SVG Version: 6.00 Build 0)  -->
<svg version="1.1" id="Capa_1" xmlns="http://www.w3.org/2000/svg" xmlns:xlink="http://www.w3.org/1999/xlink" x="0px" y="0px"
	 viewBox="0 0 496.328 496.328" style="enable-background:new 0 0 496.328 496.328;" xml:space="preserve">
<polygon style="fill:#A6A6A6;" points="488,336.164 360,464.164 276,380.164 376,280.164 "/>
<path d="M360,472.164c-2.4,0-4-0.8-5.6-2.4l-84-84c-3.2-3.2-3.2-8,0-11.2l100-100c2.4-2.4,6.4-3.2,9.6-1.6l112,56
	c4,1.6,5.6,6.4,3.2,10.4c0,0.8-0.8,1.6-1.6,2.4l-128,128C364,471.364,362.4,472.164,360,472.164z M287.2,380.164l72.8,72.8
	l114.4-114.4l-96.8-48.8L287.2,380.164z"/>
<path style="fill:#313740;" d="M288,312.164v-287.2c0-8.8,7.2-16,16-16.8l0,0c8.8,0,16,7.2,16,16.8v254.4L288,312.164z"/>
<path d="M280,332.164v-307.2c0-13.6,10.4-24,24-24s24,10.4,24,24v257.6L280,332.164z M304,16.164c-4.8,0-8,4-8,8.8v268l16-16.8
	v-251.2C312,20.164,308.8,16.164,304,16.164z"/>
<path style="fill:#313740;" d="M144,312.164v-284.8c0.8-9.6-6.4-18.4-16-19.2l0,0c-9.6,0.8-16.8,9.6-16,19.2v284.8H144z"/>
<path d="M152,320.164h-48v-292.8c-0.8-14.4,9.6-26.4,24-27.2c14.4,0.8,24.8,12.8,24,27.2V320.164z M120,304.164h16v-276.8
	c0-6.4-4-11.2-8-11.2s-8,4.8-8,11.2V304.164z"/>
<polyline style="fill:#5C6373;" points="48,376.164 88,312.164 168,312.164 208,376.164 "/>
<path d="M201.6,380.164l-38.4-60H92l-37.6,60l-13.6-8.8l40-64c1.6-2.4,4-4,7.2-4h80c2.4,0,5.6,1.6,6.4,4l40,64L201.6,380.164z"/>
<path style="fill:#7D828C;" d="M248,464.164c0,13.6-10.4,24-24,24s-24-10.4-24-24c0,13.6-10.4,24-24,24s-24-10.4-24-24
	c0,13.6-10.4,24-24,24s-24-10.4-24-24c0,13.6-10.4,24-24,24s-24-10.4-24-24c0,13.6-10.4,24-24,24s-24-10.4-24-24l40-88h160
	L248,464.164z"/>
<path d="M224,496.164c-8.8,0-17.6-4-24-11.2c-12,13.6-32,14.4-44.8,3.2c-0.8-0.8-1.6-1.6-3.2-3.2c-12,13.6-32,14.4-44.8,3.2
	c-0.8-0.8-1.6-1.6-3.2-3.2c-12,13.6-32,14.4-44.8,3.2c-0.8-0.8-1.6-1.6-3.2-3.2c-12,13.6-32,14.4-44.8,3.2
	c-7.2-6.4-11.2-15.2-11.2-24v-1.6l43.2-94.4h170.4l42.4,94.4v1.6C256,481.764,241.6,496.164,224,496.164z M208,464.164
	c0,8.8,7.2,16,16,16c8,0,15.2-6.4,16-14.4l-36.8-81.6H52.8l-36.8,81.6c0.8,8.8,8.8,15.2,17.6,14.4c8-0.8,14.4-8,14.4-16h16
	c0,8.8,7.2,16,16,16s16-7.2,16-16h16c0,8.8,7.2,16,16,16s16-7.2,16-16h16c0,8.8,7.2,16,16,16s16-7.2,16-16H208z"/>
<path d="M224,496.164c-16.8,0-31.2-13.6-32-30.4l-29.6-81.6H52.8l-36.8,81.6c0.8,8.8,8.8,15.2,17.6,14.4c8-0.8,14.4-8,14.4-16h16
	c0,17.6-14.4,32-32,32s-32-14.4-32-32c0-0.8,0-2.4,0.8-3.2l40-88c1.6-3.2,4-4.8,7.2-4.8h160c3.2,0,5.6,1.6,7.2,4.8l40,88
	c0.8,0.8,0.8,2.4,0.8,3.2C256,481.764,241.6,496.164,224,496.164z M179.2,384.164l28,77.6c0,0.8,0.8,1.6,0.8,2.4c0,8.8,7.2,16,16,16
	c8,0,15.2-6.4,16-14.4l-36.8-81.6H179.2z"/>
<path d="M80,496.164c-17.6,0-32-14.4-32-32v-2.4l16-56c1.6-4,5.6-6.4,9.6-5.6s6.4,5.6,5.6,9.6l-16,55.2c0,8.8,8,16,16.8,15.2
	s16-8,15.2-16.8l0,0c0-4.8,3.2-8,8-8s8,3.2,8,8C112,481.764,97.6,496.164,80,496.164z"/>
<path d="M128,496.164c-17.6,0-32-14.4-32-32l8-88.8l16,1.6l-8,88c0,8.8,7.2,16,16,16s16-7.2,16-16h16
	C160,481.764,145.6,496.164,128,496.164z"/>
<path d="M176,496.164c-17.6,0-32-14.4-32-32v-40c0-4.8,3.2-8,8-8s8,3.2,8,8v40c0,8.8,7.2,16,16,16s16-7.2,16-16c0-4.8,3.2-8,8-8
	s8,3.2,8,8C208,481.764,193.6,496.164,176,496.164z"/>
<polygon style="fill:#5C6373;" points="276,380.164 376,280.164 376,224.164 248,352.164 "/>
<path d="M276,388.164c-2.4,0-4-0.8-5.6-2.4l-28-28c-3.2-3.2-3.2-8,0-11.2l128-128c3.2-3.2,8-3.2,11.2,0c1.6,1.6,2.4,3.2,2.4,5.6v56
	c0,2.4-0.8,4-2.4,5.6l-100,100C280,387.364,278.4,388.164,276,388.164z M259.2,352.164l16.8,16.8l92-92v-33.6L259.2,352.164z"/>
<polygon style="fill:#5C6373;" points="488,336.164 376,280.164 376,224.164 "/>
<path d="M488,344.164c-1.6,0-2.4,0-3.2-0.8l-112-56c-3.2-1.6-4.8-4-4.8-7.2v-56c0-4.8,3.2-8,8-8c2.4,0,4,0.8,5.6,2.4l112,112
	c3.2,3.2,3.2,8,0,11.2C492,343.364,490.4,344.164,488,344.164z M384,275.364l63.2,32l-63.2-64V275.364z"/>
<polygon style="fill:#A4A5A6;" points="360,464.164 248,408.164 248,352.164 "/>
<path d="M360,472.164c-1.6,0-2.4,0-3.2-0.8l-112-56c-3.2-1.6-4.8-4-4.8-7.2v-56c0-4.8,3.2-8,8-8c2.4,0,4,0.8,5.6,2.4l112,112
	c3.2,3.2,3.2,8,0,11.2C364,471.364,362.4,472.164,360,472.164z M256,403.364l63.2,32l-63.2-64V403.364z"/>
<rect x="344" y="384.164" width="16" height="16"/>
<rect x="360" y="352.164" width="16" height="16"/>
<rect x="384" y="376.164" width="16" height="16"/>
<rect x="400" y="344.164" width="16" height="16"/>
<rect x="416" y="448.164" width="16" height="16"/>
<rect x="456" y="440.164" width="16" height="16"/>
<rect x="472" y="408.164" width="16" height="16"/>
<rect x="223.998" y="276.962" transform="matrix(-0.7071 0.7071 -0.7071 -0.7071 599.8055 327.8752)" width="16" height="22.4"/>
<rect x="191.999" y="244.962" transform="matrix(-0.7071 0.7071 -0.7071 -0.7071 522.5535 295.8741)" width="16" height="22.4"/>
<rect x="220.794" y="248.166" transform="matrix(-0.7071 0.7071 -0.7071 -0.7071 577.176 273.2583)" width="22.4" height="16"/>
<rect x="188.794" y="280.149" transform="matrix(-0.7071 0.7071 -0.7071 -0.7071 545.1636 350.4831)" width="22.4" height="16"/>
<rect x="64" y="336.164" width="128" height="16"/>
<g>
</g>
<g>
</g>
<g>
</g>
<g>
</g>
<g>
</g>
<g>
</g>
<g>
</g>
<g>
</g>
<g>
</g>
<g>
</g>
<g>
</g>
<g>
</g>
<g>
</g>
<g>
</g>
<g>
</g>
</svg>
