<?xml version="1.0" encoding="iso-8859-1"?>
<!-- Generator: Adobe Illustrator 19.0.0, SVG Export Plug-In . SVG Version: 6.00 Build 0)  -->
<svg version="1.1" id="Capa_1" xmlns="http://www.w3.org/2000/svg" xmlns:xlink="http://www.w3.org/1999/xlink" x="0px" y="0px"
	 viewBox="0 0 512 512" style="enable-background:new 0 0 512 512;" xml:space="preserve">
<g>
	<path style="fill:#CB8252;" d="M486.4,128h-1.463c2.768-7.836,1.562-16.527-3.236-23.313c-4.798-6.785-12.591-10.82-20.901-10.821
		h-9.996c2.768-7.836,1.562-16.527-3.236-23.313c-4.798-6.785-12.591-10.82-20.901-10.821H332.8
		c-20.516,0.009-40.645,5.588-58.238,16.142c-10.843,6.33-23.2,9.599-35.754,9.458h-25.475V68.267
		c-0.011-8.307-4.047-16.094-10.828-20.892c-6.782-4.798-15.468-6.012-23.305-3.257V25.6c0-14.138-11.462-25.6-25.6-25.6
		S128,11.462,128,25.6v1.451c-7.837-2.755-16.523-1.541-23.305,3.257C97.913,35.106,93.877,42.893,93.867,51.2v9.984
		c-7.837-2.755-16.523-1.541-23.305,3.257S59.744,77.026,59.733,85.333V179.2c-0.001,20.503,5.574,40.62,16.128,58.197
		c6.349,10.836,9.623,23.197,9.472,35.755v25.515H68.267c-8.307,0.011-16.094,4.047-20.892,10.828
		c-4.798,6.782-6.012,15.468-3.257,23.305H25.6C11.462,332.8,0,344.262,0,358.4C0,372.538,11.462,384,25.6,384h1.451
		c-2.755,7.837-1.541,16.523,3.257,23.305c4.798,6.782,12.585,10.818,20.892,10.828h9.984c-2.755,7.837-1.541,16.523,3.257,23.305
		s12.585,10.818,20.892,10.828H179.2c20.503,0.001,40.62-5.574,58.197-16.128c10.836-6.348,23.197-9.623,35.755-9.472h25.515v17.067
		c0.01,8.307,4.046,16.095,10.828,20.893c6.782,4.798,15.468,6.012,23.306,3.256V486.4c0,14.138,11.462,25.6,25.6,25.6
		c14.138,0,25.6-11.461,25.6-25.6v-1.451c7.837,2.755,16.524,1.542,23.306-3.256c6.782-4.798,10.818-12.585,10.828-20.893v-9.984
		c7.837,2.755,16.524,1.542,23.306-3.256c6.782-4.798,10.818-12.585,10.828-20.893V332.8c0.001-20.503-5.574-40.62-16.128-58.197
		c-6.348-10.836-9.623-23.197-9.472-35.755v-25.515h17.067c8.31-0.001,16.103-4.036,20.901-10.821
		c4.798-6.785,6.005-15.477,3.236-23.313H486.4c14.138,0,25.6-11.462,25.6-25.6S500.539,128,486.4,128z M204.8,273.493v-4.096
		c0.077-5.229,2.448-10.159,6.485-13.483c15.444-12.794,25.224-31.159,27.221-51.115h4.135c5.219,0.076,10.136,2.464,13.421,6.521
		c12.855,15.352,31.212,25.058,51.138,27.039v4.243c-0.077,5.229-2.448,10.159-6.485,13.483
		c-15.444,12.794-25.224,31.159-27.221,51.115h-4.096c-5.229-0.077-10.159-2.448-13.483-6.485
		C243.12,285.271,224.755,275.491,204.8,273.493z"/>
	<path style="fill:#CBB292;" d="M230.4,196.267c0.311,20.534-8.732,40.096-24.576,53.163c-6.005,4.897-9.509,12.22-9.557,19.968
		V307.2h-102.4v-34.048c0.141-14.088-3.546-27.95-10.667-40.107c-9.766-16.263-14.927-34.875-14.933-53.845V85.333
		c0.068-9.397,7.669-16.999,17.067-17.067c9.414,0.028,17.039,7.652,17.067,17.067V51.2c0.068-9.397,7.669-16.999,17.067-17.067
		c9.414,0.028,17.039,7.652,17.067,17.067V25.6c-0.024-4.528,1.793-8.871,5.035-12.032c3.161-3.241,7.504-5.059,12.032-5.035
		c9.414,0.028,17.039,7.652,17.067,17.067v42.667c0.068-9.397,7.669-16.999,17.067-17.067c9.414,0.028,17.039,7.652,17.067,17.067
		v128H230.4z"/>
	<path style="fill:#FDD7AD;" d="M503.467,153.6c-0.028,9.414-7.653,17.039-17.067,17.067h-42.667
		c9.397,0.068,16.999,7.669,17.067,17.067c-0.028,9.414-7.652,17.039-17.067,17.067h-128v25.6
		c-20.534,0.311-40.096-8.732-53.163-24.576c-4.897-6.005-12.22-9.509-19.968-9.557H204.8v-102.4h34.048
		c14.088,0.141,27.95-3.546,40.107-10.667c16.263-9.766,34.875-14.927,53.845-14.933h93.867c9.397,0.068,16.999,7.669,17.067,17.067
		c-0.028,9.414-7.653,17.039-17.067,17.067H460.8c9.397,0.068,16.999,7.669,17.067,17.067c-0.028,9.414-7.653,17.039-17.067,17.067
		h25.6C495.798,136.601,503.399,144.203,503.467,153.6z"/>
	<path style="fill:#CB8252;" d="M443.733,332.8v93.867c-0.068,9.397-7.669,16.998-17.067,17.067
		c-9.245-0.038-16.795-7.399-17.067-16.64V460.8c-0.068,9.397-7.669,16.998-17.067,17.067c-9.245-0.038-16.795-7.399-17.067-16.64
		V486.4c-0.068,9.397-7.669,16.998-17.067,17.067c-9.414-0.028-17.039-7.653-17.067-17.067v-42.667
		c-0.068,9.397-7.669,16.998-17.067,17.067c-9.414-0.028-17.039-7.652-17.067-17.067v-17.067c4.707-0.014,8.519-3.826,8.533-8.533
		v-102.4c-0.014-4.707-3.826-8.519-8.533-8.533h-25.088c1.878-17.451,10.516-33.471,24.064-44.629
		c6.005-4.897,9.509-12.22,9.557-19.968V204.8h102.4v34.048c-0.141,14.088,3.546,27.95,10.667,40.107
		C438.566,295.218,443.727,313.83,443.733,332.8z"/>
	<path style="fill:#7F5B53;" d="M298.667,324.267V409.6h-25.515c-15.621-0.149-30.988,3.951-44.459,11.861
		c-14.942,8.994-32.053,13.744-49.493,13.739H85.333c-4.713,0-8.533-3.82-8.533-8.533s3.821-8.533,8.533-8.533h59.733
		c4.713,0,8.533-3.821,8.533-8.533c0-4.713-3.821-8.533-8.533-8.533H51.2c-4.713,0-8.533-3.82-8.533-8.533S46.487,384,51.2,384
		h93.867c4.713,0,8.533-3.821,8.533-8.533c0-4.713-3.821-8.533-8.533-8.533H25.6c-4.713,0-8.533-3.82-8.533-8.533
		s3.821-8.533,8.533-8.533h119.467c4.713,0,8.533-3.821,8.533-8.533s-3.821-8.533-8.533-8.533h-76.8
		c-4.713,0-8.533-3.82-8.533-8.533s3.821-8.533,8.533-8.533h76.8c4.707-0.014,8.519-3.826,8.533-8.533h42.667v-17.067
		c2.852-0.007,5.702,0.164,8.533,0.512c14.902,1.878,28.52,9.389,38.059,20.992c6.538,7.934,16.258,12.56,26.539,12.629H298.667z"/>
	<g>
		<path style="fill:#59474E;" d="M204.8,273.493v8.619c-2.831-0.348-5.681-0.519-8.533-0.512v8.533
			c-4.713,0-8.533-3.821-8.533-8.533s3.821-8.533,8.533-8.533C199.253,273.067,202.069,273.237,204.8,273.493z"/>
		<path style="fill:#59474E;" d="M315.733,315.733v102.4c-0.014,4.707-3.826,8.519-8.533,8.533h-34.048
			c-12.558-0.151-24.919,3.124-35.755,9.472c-17.578,10.554-37.695,16.129-58.197,16.128H85.333
			c-8.307-0.011-16.094-4.047-20.892-10.828s-6.012-15.468-3.257-23.305H51.2c-8.307-0.011-16.094-4.047-20.892-10.828
			c-4.798-6.782-6.012-15.468-3.257-23.305H25.6C11.462,384,0,372.538,0,358.4c0-14.138,11.462-25.6,25.6-25.6h18.517
			c-2.755-7.837-1.541-16.523,3.257-23.305c4.798-6.782,12.585-10.818,20.892-10.828h17.067v8.533
			c0.014,4.707,3.826,8.519,8.533,8.533h-25.6c-4.713,0-8.533,3.821-8.533,8.533s3.821,8.533,8.533,8.533h76.8
			c4.713,0,8.533,3.82,8.533,8.533s-3.821,8.533-8.533,8.533H25.6c-4.713,0-8.533,3.82-8.533,8.533s3.821,8.533,8.533,8.533h119.467
			c4.713,0,8.533,3.821,8.533,8.533c0,4.713-3.821,8.533-8.533,8.533H51.2c-4.713,0-8.533,3.82-8.533,8.533s3.821,8.533,8.533,8.533
			h93.867c4.713,0,8.533,3.821,8.533,8.533c0,4.713-3.821,8.533-8.533,8.533H85.333c-4.713,0-8.533,3.82-8.533,8.533
			s3.821,8.533,8.533,8.533H179.2c17.44,0.005,34.551-4.745,49.493-13.739c13.47-7.911,28.838-12.011,44.459-11.861h25.515v-85.333
			h-29.269c-10.281-0.069-20.001-4.695-26.539-12.629c-9.538-11.603-23.156-19.114-38.059-20.992v-17.152
			c19.955,1.997,38.32,11.778,51.115,27.221c3.324,4.037,8.254,6.409,13.483,6.485H307.2
			C311.907,307.214,315.719,311.026,315.733,315.733z"/>
		<path style="fill:#59474E;" d="M153.6,307.2c-0.014,4.707-3.826,8.519-8.533,8.533h-51.2c-4.707-0.014-8.519-3.826-8.533-8.533
			v-8.533h59.733C149.774,298.681,153.586,302.493,153.6,307.2z"/>
		<path style="fill:#59474E;" d="M204.8,282.112v8.533c-2.831-0.348-5.681-0.519-8.533-0.512V281.6
			C199.119,281.593,201.969,281.764,204.8,282.112z"/>
	</g>
	<path style="fill:#7F6E5D;" d="M238.933,196.267c0,2.987-0.171,5.803-0.427,8.533c-1.997,19.955-11.778,38.32-27.221,51.115
		c-4.037,3.324-6.409,8.254-6.485,13.483V307.2c-0.014,4.707-3.826,8.519-8.533,8.533h-102.4c-4.707-0.014-8.519-3.826-8.533-8.533
		v-34.048c0.151-12.558-3.123-24.919-9.472-35.755C65.308,219.82,59.733,199.703,59.733,179.2V85.333
		c0.011-8.307,4.047-16.094,10.828-20.892s15.468-6.012,23.305-3.257V51.2c0.011-8.307,4.047-16.094,10.828-20.892
		c6.782-4.798,15.468-6.012,23.305-3.257V25.6C128,11.462,139.462,0,153.6,0s25.6,11.462,25.6,25.6v18.517
		c7.837-2.755,16.523-1.541,23.305,3.257c6.782,4.798,10.818,12.585,10.828,20.892v76.8c0,4.713-3.821,8.533-8.533,8.533
		c-4.713,0-8.533-3.821-8.533-8.533v-76.8c0-4.713-3.821-8.533-8.533-8.533c-4.713,0-8.533,3.821-8.533,8.533v76.8
		c0,4.713-3.821,8.533-8.533,8.533c-4.713,0-8.533-3.821-8.533-8.533V25.6c0-4.713-3.821-8.533-8.533-8.533
		s-8.533,3.821-8.533,8.533v119.467c0,4.713-3.821,8.533-8.533,8.533S128,149.779,128,145.067V51.2c0-4.713-3.821-8.533-8.533-8.533
		c-4.713,0-8.533,3.821-8.533,8.533v93.867c0,4.713-3.821,8.533-8.533,8.533c-4.713,0-8.533-3.821-8.533-8.533V85.333
		c0-4.713-3.821-8.533-8.533-8.533S76.8,80.621,76.8,85.333V179.2c-0.005,17.44,4.745,34.551,13.739,49.493
		c7.911,13.47,12.011,28.838,11.861,44.459v25.515h85.333v-29.269c0.069-10.281,4.695-20.001,12.629-26.539
		c11.603-9.538,19.114-23.156,20.992-38.059c0.348-2.831,0.519-5.681,0.512-8.533c0-4.713,3.82-8.533,8.533-8.533
		S238.933,191.554,238.933,196.267z"/>
	<path style="fill:#CB9080;" d="M315.733,238.933c-23.034,0.253-44.955-9.891-59.671-27.613c-3.285-4.057-8.201-6.445-13.421-6.521
		H204.8c-4.713,0-8.533-3.821-8.533-8.533v-102.4c0-4.713,3.821-8.533,8.533-8.533h34.008c12.554,0.14,24.911-3.129,35.754-9.458
		c17.593-10.554,37.722-16.133,58.238-16.142h93.867c8.31,0.001,16.103,4.036,20.901,10.821c4.798,6.785,6.005,15.477,3.236,23.313
		h9.996c8.31,0.001,16.103,4.036,20.901,10.821c4.798,6.785,6.005,15.477,3.236,23.313h1.463c14.138,0,25.6,11.462,25.6,25.6
		s-11.461,25.6-25.6,25.6h-18.529c2.768,7.836,1.562,16.527-3.236,23.313c-4.798,6.785-12.591,10.82-20.901,10.821h-76.8
		c-4.713,0-8.533-3.821-8.533-8.533c0-4.713,3.82-8.533,8.533-8.533h76.8c4.713,0,8.533-3.821,8.533-8.533
		c0-4.713-3.821-8.533-8.533-8.533h-76.8c-4.713,0-8.533-3.821-8.533-8.533c0-4.713,3.82-8.533,8.533-8.533H486.4
		c4.713,0,8.533-3.821,8.533-8.533s-3.82-8.533-8.533-8.533H366.933c-4.713,0-8.533-3.821-8.533-8.533s3.82-8.533,8.533-8.533H460.8
		c4.713,0,8.533-3.821,8.533-8.533c0-4.713-3.82-8.533-8.533-8.533h-93.867c-4.713,0-8.533-3.821-8.533-8.533
		c0-4.713,3.82-8.533,8.533-8.533h59.733c4.713,0,8.533-3.821,8.533-8.533s-3.82-8.533-8.533-8.533H332.8
		c-17.422,0.007-34.515,4.745-49.454,13.708c-13.496,7.922-28.889,12.032-44.538,11.892h-25.475v85.333h29.308
		c10.277,0.069,19.992,4.701,26.517,12.642c11.417,13.915,28.579,21.834,46.575,21.492c4.713,0,8.533,3.82,8.533,8.533
		S320.446,238.933,315.733,238.933z"/>
	<path style="fill:#805333;" d="M452.267,332.8v93.867c-0.01,8.307-4.046,16.095-10.828,20.893
		c-6.782,4.798-15.468,6.012-23.306,3.256v9.984c-0.01,8.307-4.046,16.095-10.828,20.893c-6.782,4.798-15.468,6.012-23.306,3.256
		v1.451c0,14.138-11.462,25.6-25.6,25.6c-14.138,0-25.6-11.461-25.6-25.6v-18.517c-7.837,2.755-16.524,1.542-23.306-3.256
		c-6.782-4.798-10.818-12.585-10.828-20.893v-17.067h8.533c4.707-0.014,8.519-3.826,8.533-8.533v25.6
		c0,4.713,3.821,8.533,8.533,8.533s8.533-3.821,8.533-8.533v-76.8c0-4.713,3.82-8.533,8.533-8.533s8.533,3.82,8.533,8.533V486.4
		c0,4.713,3.82,8.533,8.533,8.533s8.533-3.82,8.533-8.533V366.933c0-4.713,3.821-8.533,8.533-8.533c4.713,0,8.533,3.82,8.533,8.533
		V460.8c0,4.713,3.82,8.533,8.533,8.533s8.533-3.82,8.533-8.533v-93.867c0-4.713,3.821-8.533,8.533-8.533
		c4.713,0,8.533,3.82,8.533,8.533v59.733c0,4.713,3.82,8.533,8.533,8.533s8.533-3.82,8.533-8.533V332.8
		c0.005-17.44-4.745-34.551-13.739-49.493c-7.911-13.47-12.011-28.838-11.861-44.459v-25.515h-85.333v29.269
		c-0.069,10.281-4.695,20.001-12.629,26.539c-11.602,9.539-19.114,23.157-20.992,38.059h-17.152
		c1.997-19.955,11.778-38.32,27.221-51.115c4.037-3.324,6.409-8.254,6.485-13.483V204.8c0.014-4.707,3.826-8.519,8.533-8.533h102.4
		c4.707,0.014,8.519,3.826,8.533,8.533v34.048c-0.151,12.558,3.124,24.919,9.472,35.755
		C446.692,292.18,452.267,312.297,452.267,332.8z"/>
</g>
<g>
</g>
<g>
</g>
<g>
</g>
<g>
</g>
<g>
</g>
<g>
</g>
<g>
</g>
<g>
</g>
<g>
</g>
<g>
</g>
<g>
</g>
<g>
</g>
<g>
</g>
<g>
</g>
<g>
</g>
</svg>
