<?xml version="1.0" ?><svg viewBox="0 0 64 64" xmlns="http://www.w3.org/2000/svg"><title/><g data-name="21" id="_21"><path d="M46.21,54.68a19,19,0,0,0-3.6-6.33,1,1,0,1,0-1.52,1.3,17.06,17.06,0,0,1,3.22,5.67,1,1,0,0,0,.95.68,1.19,1.19,0,0,0,.32,0A1,1,0,0,0,46.21,54.68Z"/><path d="M40.65,46.38a17.93,17.93,0,0,0-4.23-2.74,1,1,0,1,0-.84,1.81,16.44,16.44,0,0,1,3.77,2.44,1,1,0,0,0,.65.25,1,1,0,0,0,.65-1.76Z"/><path d="M50.5,56h-.68A18.59,18.59,0,0,0,37.46,41.88,1,1,0,0,0,38,41V37a1,1,0,0,0-1-1H35V6a3,3,0,0,0-6,0V36H27a1,1,0,0,0-1,1v4a1,1,0,0,0,.54.88A18.59,18.59,0,0,0,14.18,56H13.5a2.5,2.5,0,0,0,0,5h37a2.5,2.5,0,0,0,0-5ZM31,6a1,1,0,0,1,2,0V36H31ZM28,38h8v2H28Zm4,5A16.34,16.34,0,0,1,47.78,56H16.22A16.34,16.34,0,0,1,32,43ZM50.5,59h-37a.5.5,0,0,1,0-1h37a.5.5,0,0,1,0,1Z"/></g></svg>