<?xml version="1.0"?>
<svg xmlns="http://www.w3.org/2000/svg" id="Layer_1" data-name="Layer 1" viewBox="0 0 512 512" width="512" height="512"><title>Lawn mower</title><path d="M58.731,352.644a28.988,28.988,0,1,0,28.988,28.987A29.02,29.02,0,0,0,58.731,352.644Zm0,41.975a12.988,12.988,0,1,1,12.988-12.988A13,13,0,0,1,58.731,394.619Z"/><path d="M287.315,381.631A28.988,28.988,0,1,0,316.3,352.644,29.021,29.021,0,0,0,287.315,381.631Zm41.976,0A12.988,12.988,0,1,1,316.3,368.644,13,13,0,0,1,329.291,381.631Z"/><path d="M500.789,80.1a8.183,8.183,0,0,0-8.112.022L450.235,104.8a8.025,8.025,0,0,0-4,6.7l-1.518,55.8L322.2,239.329A32.887,32.887,0,0,0,306,267.5v14.179l-22,4.956v-19.3A8.713,8.713,0,0,0,275.521,259H264V240.5c0-4.418-3.915-7.5-8.333-7.5H141.906c-4.419,0-7.906,3.085-7.906,7.5V259H122.051A8.336,8.336,0,0,0,114,267.334V307H86.1a36.7,36.7,0,0,0-34.744,24.056A51.2,51.2,0,1,0,109.151,391H265.884a51.309,51.309,0,1,0,99.943-22.89l117.331-50.681A7.994,7.994,0,0,0,488,310.1V230.5a17.677,17.677,0,0,0-29.232-13.359l-40.384,34.912L339.743,274.4a9.234,9.234,0,0,0-1.081.148L322,278.175V267.5a16.818,16.818,0,0,1,8.3-14.38l126.2-74.214c.062-.035.142-.071.2-.108l44.14-25.842A8.2,8.2,0,0,0,505,146.061V87.034A8.191,8.191,0,0,0,500.789,80.1ZM150,249h98v10H150Zm-20,26H268v15.139L192.554,307H130ZM58.731,416.966a35.33,35.33,0,0,1-2.49-70.572,7.977,7.977,0,0,0,3.07-.083,35.33,35.33,0,0,1-.58,70.655ZM348,288.555l76.233-21.6a8.464,8.464,0,0,0,3.159-1.644l41.776-36.07a1.618,1.618,0,0,1,1.819-.254A1.583,1.583,0,0,1,472,230.5v74.343l-112.963,48.71c-2.959-4.511-6.037-8.528-11.037-11.9Zm3.639,93.076a35.334,35.334,0,0,1-70.627,1.715c0-.035,0-.069,0-.105,0-.107-.012-.211-.016-.317-.016-.43-.033-.859-.033-1.293a35.336,35.336,0,0,1,70.671,0ZM332,292.3v40.613a49.385,49.385,0,0,0-15.922-2.737A51.324,51.324,0,0,0,265.38,375H109.655a50.941,50.941,0,0,0-40.642-43.566A20.65,20.65,0,0,1,86.1,323H193.42a6.5,6.5,0,0,0,1.486-.407ZM489,141.485l-27.829,16.253,1.215-41.35L489,100.949Z"/><path d="M129,335v25a8,8,0,0,0,8,8H243a8,8,0,0,0,8-8V335a8,8,0,0,0-8-8H137A8,8,0,0,0,129,335Zm16,8h90v10H145Z"/></svg>
