<svg id="Layer_1" height="512" viewBox="0 0 512 512" width="512" xmlns="http://www.w3.org/2000/svg" data-name="Layer 1"><path d="m137 349h92v12h-92z"/><circle cx="51.533" cy="388.631" r="13.988"/><path d="m52.006 352.309a6.969 6.969 0 0 1 -2.854.092c-.02 0-.04-.01-.06-.013a36.336 36.336 0 1 0 2.914-.079zm-.473 64.31a27.988 27.988 0 1 1 27.988-27.988 28.02 28.02 0 0 1 -27.988 27.988z"/><path d="m142 255h100v12h-100z"/><path d="m262 297.944v-16.944h-140v34h63.464z"/><path d="m308.979 338.176a47.939 47.939 0 0 1 17.021 3.132v-43.25l-138.407 30.558a6.394 6.394 0 0 1 -1.371.384h-107.322a21.631 21.631 0 0 0 -18.746 10.152 50.437 50.437 0 0 1 41.422 43.848h157.486a50.362 50.362 0 0 1 49.917-44.824zm-65.979 28.824a7 7 0 0 1 -7 7h-106a7 7 0 0 1 -7-7v-25a7 7 0 0 1 7-7h106a7 7 0 0 1 7 7z"/><path d="m309.105 352.3a36.376 36.376 0 0 0 -36.335 36.334c0 .434.018.863.033 1.292 0 .106.016.211.016.318 0 .036 0 .07-.006.106a36.334 36.334 0 1 0 36.292-38.05zm0 64.322a27.988 27.988 0 1 1 27.988-27.988 28.019 28.019 0 0 1 -27.988 27.985z"/><circle cx="309.105" cy="388.631" r="13.988"/><path d="m464.3 235.082a2.7 2.7 0 0 0 -2.938.406l-41.8 36.071a7.1 7.1 0 0 1 -2.689 1.441l-76.873 21.8v54.335a43.263 43.263 0 0 1 11.654 12.673l114.346-49.308v-75a2.634 2.634 0 0 0 -1.7-2.418z"/><path d="m493.191 87.965a7.281 7.281 0 0 0 -7.16.019l-42.466 24.684a7.036 7.036 0 0 0 -3.512 5.86l-1.539 56.358-122.906 72.305a31.8 31.8 0 0 0 -15.608 27.309v20.5h14v-20.5a17.73 17.73 0 0 1 8.7-15.242l126.166-74.222c.054-.03.1-.061.153-.093l44.238-25.849a7.29 7.29 0 0 0 3.743-6.033v-59.027a7.291 7.291 0 0 0 -3.809-6.069zm-10.191 61.092-29.977 17.458 1.329-43.711 28.648-16.594z"/></svg>