<?xml version="1.0"?>
<svg xmlns="http://www.w3.org/2000/svg" height="512px" viewBox="0 0 464 464" width="512px" class=""><g><path d="m448 80-88-64-80-16c0 26.507812-21.492188 48-48 48s-48-21.492188-48-48l-80 16-88 56 56 88 32-29.089844v237.089844h256v-234.183594l32 26.183594zm0 0" fill="#60a2d7" data-original="#60A2D7" class="" style="fill:#8B9297" data-old_color="#60a2d7"/><path d="m272 288c.027344 22.140625 15.195312 41.386719 36.710938 46.59375 21.519531 5.207031 43.808593-4.980469 53.953124-24.65625 15.992188 12.375 38.027344 13.402344 55.101563 2.5625 17.074219-10.835938 25.523437-31.214844 21.128906-50.953125s-20.6875-34.609375-40.746093-37.179687c-20.0625-2.574219-39.582032 7.703124-48.8125 25.695312-12.382813-9.609375-28.683594-12.558594-43.648438-7.886719 14.84375-14.574219 18.613281-37.050781 9.332031-55.667969-9.28125-18.617187-29.5-29.136718-50.074219-26.054687-20.570312 3.082031-36.816406 19.066406-40.234374 39.585937-.238282 0-.472657 0-.710938 0-16.691406.003907-32.179688 8.691407-40.878906 22.9375-3.011719-17.375-15.304688-31.703124-32.023438-37.3125-16.71875-5.609374-35.164062-1.605468-48.046875 10.4375-12.886719 12.039063-18.128906 30.175782-13.660156 47.234376-19.621094-7.628907-41.921875-1.578126-55.003906 14.917968-13.078125 16.496094-13.882813 39.589844-1.980469 56.953125 11.898438 17.367188 33.726562 24.953125 53.832031 18.707031 20.105469-6.246093 33.792969-24.863281 33.761719-45.914062zm0 0" fill="#a3d4f7" data-original="#A3D4F7" class="" style="fill:#5B778B" data-old_color="#a3d4f7"/><path d="m440 288c0 97.199219-32 176-112 176h-192c-80 0-112-100.480469-112-176zm0 0" fill="#ac8168" data-original="#AC8168" class="" style="fill:#000000" data-old_color="#ac8168"/><path d="m16 288h432c8.835938 0 16 7.164062 16 16s-7.164062 16-16 16h-432c-8.835938 0-16-7.164062-16-16s7.164062-16 16-16zm0 0" fill="#4f3328" data-original="#4F3328" class="" style="fill:#3E3C3B" data-old_color="#4f3328"/><g fill="#a3d4f7"><path d="m328 104c0 13.253906-10.746094 24-24 24s-24-10.746094-24-24 10.746094-24 24-24 24 10.746094 24 24zm0 0" data-original="#000000" class="active-path" style="fill:#637E93" data-old_color="#000000"/><path d="m208 144c0 8.835938-7.164062 16-16 16s-16-7.164062-16-16 7.164062-16 16-16 16 7.164062 16 16zm0 0" data-original="#000000" class="active-path" style="fill:#637E93" data-old_color="#000000"/></g></g> </svg>
