<?xml version="1.0" encoding="iso-8859-1"?>
<!-- Generator: Adobe Illustrator 16.0.0, SVG Export Plug-In . SVG Version: 6.00 Build 0)  -->
<!DOCTYPE svg PUBLIC "-//W3C//DTD SVG 1.1//EN" "http://www.w3.org/Graphics/SVG/1.1/DTD/svg11.dtd">
<svg version="1.1" id="Capa_1" xmlns="http://www.w3.org/2000/svg" xmlns:xlink="http://www.w3.org/1999/xlink" x="0px" y="0px"
	 width="272.979px" height="272.979px" viewBox="0 0 272.979 272.979" style="enable-background:new 0 0 272.979 272.979;"
	 xml:space="preserve">
<g>
	<path d="M270.844,81.963l-19.479-14.605c-1.681-1.261-3.966-1.395-5.79-0.342c-1.883,1.093-4.395,0.784-5.924-0.743l-26.348-26.346
		c-0.27-0.273-0.526-0.638-0.804-1.146c-0.359-0.656-0.853-1.224-1.454-1.672l-26.481-19.855c-2.08-1.565-5.017-1.362-6.868,0.491
		l-38.349,38.344c-0.983,0.985-1.538,2.324-1.538,3.718s0.555,2.729,1.538,3.718l3.474,3.474L1.538,208.277
		C0.553,209.263,0,210.601,0,211.997c0,1.393,0.553,2.728,1.538,3.716l8.217,8.21c0,0,0.003,0,0.007,0.004l21.73,21.744
		c0.007,0.007,0.014,0.007,0.021,0.014l9.55,9.555c1.026,1.026,2.373,1.536,3.718,1.536c1.347,0,2.692-0.51,3.718-1.536
		c2.053-2.054,2.053-5.383,0-7.437l-5.147-5.146l3.934-2.772l6.442,6.44c1.027,1.027,2.372,1.537,3.718,1.537
		c1.345,0,2.69-0.51,3.717-1.537c2.055-2.05,2.055-5.383,0-7.433l-5.15-5.154l3.932-2.765l6.437,6.438
		c1.026,1.026,2.372,1.536,3.718,1.536c1.345,0,2.691-0.51,3.718-1.536c2.054-2.051,2.054-5.384,0-7.434l-5.148-5.15l3.932-2.771
		l6.44,6.443c1.027,1.027,2.373,1.537,3.718,1.537c1.347,0,2.691-0.51,3.718-1.537c2.053-2.05,2.053-5.383,0-7.433l-5.15-5.153
		l3.932-2.77l6.44,6.444c1.026,1.026,2.372,1.537,3.718,1.537c1.345,0,2.691-0.511,3.718-1.537c2.053-2.053,2.053-5.383,0-7.433
		L93.984,207l3.939-2.775l6.44,6.441c1.027,1.026,2.374,1.539,3.718,1.539c1.347,0,2.691-0.513,3.718-1.539
		c2.053-2.051,2.053-5.38,0-7.43l-5.15-5.154l3.93-2.769l6.439,6.44c1.026,1.027,2.372,1.54,3.718,1.54
		c1.345,0,2.689-0.513,3.716-1.54c2.055-2.053,2.055-5.379,0-7.436l-5.15-5.15l3.936-2.772l6.437,6.44
		c1.026,1.026,2.372,1.54,3.718,1.54c1.345,0,2.692-0.514,3.718-1.54c2.053-2.053,2.053-5.383,0-7.437l-5.149-5.15l3.932-2.769
		l6.438,6.44c1.027,1.027,2.375,1.54,3.721,1.54c1.345,0,2.692-0.513,3.72-1.54c2.053-2.053,2.053-5.383,0-7.436l-5.147-5.15
		l3.929-2.769l6.44,6.437c1.027,1.026,2.368,1.54,3.717,1.54c1.345,0,2.689-0.514,3.717-1.54c2.053-2.05,2.053-5.383,0-7.433
		l-5.147-5.146l3.933-2.772l6.44,6.434c1.026,1.026,2.371,1.54,3.72,1.54c1.345,0,2.693-0.514,3.72-1.543
		c2.05-2.054,2.05-5.384-0.003-7.434l-5.147-5.144l3.929-2.771l5.94,5.944c1.027,1.026,2.375,1.536,3.72,1.536
		c1.346,0,2.693-0.51,3.721-1.536c2.053-2.05,2.053-5.383,0-7.434l-4.654-4.653l3.936-2.772l6.297,6.297
		c1.026,1.026,2.371,1.54,3.716,1.54s2.69-0.514,3.717-1.54c2.054-2.05,2.054-5.383,0-7.433l-5.007-5.007l4.038-2.847
		c0.004,0,0.004,0,0.004-0.003l5.517-3.883l10.054,10.06c1.027,1.026,2.368,1.537,3.717,1.537c1.345,0,2.689-0.511,3.717-1.537
		l49.135-49.132c1.078-1.076,1.636-2.568,1.526-4.089C272.821,84.276,272.059,82.878,270.844,81.963z M150.253,74.426l46.986,46.986
		l-4.027,2.835c0,0,0,0-0.004,0.003l-9.144,6.444c0,0-0.007,0-0.007,0.003l-12.646,8.906c0,0-0.003,0-0.003,0.003l-12.655,8.918
		c0,0-0.004,0-0.004,0.004l-12.645,8.908l-12.655,8.911l-12.658,8.907c0,0-0.003,0-0.003,0.004l-12.654,8.915
		c0,0-0.003,0-0.003,0.003l-12.647,8.908l-12.662,8.915l-12.654,8.907c0,0-0.003,0-0.003,0.004l-12.655,8.914
		c0,0-0.003,0-0.003,0.004l-12.647,8.904c0,0,0,0-0.003,0.004l-9.041,6.368l-18.612-18.62l-0.003-0.003l-4.495-4.49L150.253,74.426z
		 M222.566,87.065c0,1.311-0.51,2.541-1.44,3.474l-5.394,5.394c-1.848,1.853-5.085,1.856-6.937-0.004l-26.36-26.355
		c-1.917-1.918-1.917-5.036,0-6.952l5.386-5.39c0.932-0.929,2.16-1.438,3.474-1.438c1.314,0,2.55,0.512,3.474,1.438l26.357,26.366
		C222.057,84.526,222.566,85.755,222.566,87.065z"/>
	<path d="M24.34,216.336c1.301,0,2.604-0.479,3.621-1.447l86.812-82.532c2.106-2.002,2.19-5.327,0.188-7.433
		c-1.997-2.106-5.33-2.19-7.428-0.187l-86.812,82.538c-2.106,2.002-2.19,5.328-0.19,7.433
		C21.564,215.792,22.949,216.336,24.34,216.336z"/>
</g>
<g>
</g>
<g>
</g>
<g>
</g>
<g>
</g>
<g>
</g>
<g>
</g>
<g>
</g>
<g>
</g>
<g>
</g>
<g>
</g>
<g>
</g>
<g>
</g>
<g>
</g>
<g>
</g>
<g>
</g>
</svg>
