<svg id="Layer_1" height="512" viewBox="0 0 512 512" width="512" xmlns="http://www.w3.org/2000/svg" data-name="Layer 1"><path d="m312.924 269.608a7.987 7.987 0 0 0 9.444-4.767l56.732-141.7c.024-.061.047-.121.07-.182a116.909 116.909 0 0 0 -5.138-93.121l-10.572-20.982a8 8 0 0 0 -14.539.547l-92.921 225.072-92.921-225.075a8 8 0 0 0 -14.539-.547l-10.572 20.985a116.909 116.909 0 0 0 -5.138 93.121c.023.061.046.121.07.182l56.732 141.7a7.987 7.987 0 0 0 9.444 4.767l17.825-4.645 9.179 9.9-8.81 8.731-9.234-2.407a26.921 26.921 0 0 0 -32.831 19.319l-11.205 43.407-35.8 136.97a7.969 7.969 0 0 0 5.671 9.759l63.829 16.643a7.946 7.946 0 0 0 6.046-.841 7.991 7.991 0 0 0 3.69-4.882l47.005-180.378a26.995 26.995 0 0 0 -19.172-32.893l9.37-9.291h22.736l9.417 9.274a27 27 0 0 0 -19.226 32.91l47.006 180.378a8 8 0 0 0 9.759 5.723l63.852-16.639a7.937 7.937 0 0 0 5.618-9.759l-35.801-136.97-11.2-43.4a26.974 26.974 0 0 0 -32.884-19.318l-9.115 2.382-8.849-8.727 9.269-9.852zm-111.06-17.26-54.073-135.062a100.862 100.862 0 0 1 4.466-80.248l2.7-5.369 86.813 210.278zm-7.9 237.437-48.37-12.605 31.659-121.488 48.369 12.6zm43.836-180.975a10.929 10.929 0 0 1 1.156 8.339l-9.294 35.664-48.369-12.6 9.294-35.665a11.016 11.016 0 0 1 13.413-7.875l27.079 7.058a10.924 10.924 0 0 1 6.721 5.079zm37.335-45.81h-38.235l-2.424-2.616 20.215-5.268a7.9 7.9 0 0 0 1.312-.478 7.9 7.9 0 0 0 1.312.478l20.265 5.284zm91.271 214.18-48.369 12.605-31.659-121.485 48.369-12.6zm-58.406-180.506a10.994 10.994 0 0 1 13.419 7.87l9.294 35.665-48.369 12.6-9.294-35.664a11 11 0 0 1 7.871-13.419zm-37.774-54.727 86.812-210.278 2.7 5.369a100.862 100.862 0 0 1 4.466 80.248l-54.068 135.062z"/></svg>