<?xml version="1.0" ?><svg height="146.6391mm" id="svg5412" version="1.1" viewBox="0 0 519.58736 519.58736" width="146.6391mm" xmlns="http://www.w3.org/2000/svg" xmlns:cc="http://creativecommons.org/ns#" xmlns:dc="http://purl.org/dc/elements/1.1/" xmlns:rdf="http://www.w3.org/1999/02/22-rdf-syntax-ns#" xmlns:svg="http://www.w3.org/2000/svg"><defs id="defs5414"/><g id="layer1" transform="translate(-380.10019,-1341.9961)"><g id="g4681" transform="translate(15555.868,-1496.941)"><rect height="23.247618" id="rect5659-2" rx="11.959525" ry="10.993329" style="opacity:1;fill:none;fill-opacity:1;fill-rule:nonzero;stroke:#000000;stroke-width:12.5;stroke-linecap:round;stroke-linejoin:round;stroke-miterlimit:4;stroke-dasharray:none;stroke-dashoffset:67.27761078;stroke-opacity:1" width="308.65466" x="-15136.366" y="3090.9258"/><path d="m -15128.751,3115.4601 c 20.052,46.2923 57.961,86.7018 106.923,105.7488 0,0 2.444,16.5319 2.497,24.8875 -0.377,73.7536 -62.564,95.4963 -45.666,95.6592 l 284.287,0 c -10.127,-10.1256 -47.776,-45.5342 -48.084,-93.0894 0,-74.1613 99.973,-133.5983 76.495,-133.7909 l -74.243,0 z" id="rect5659-6-9" style="opacity:1;fill:none;fill-opacity:1;fill-rule:nonzero;stroke:#000000;stroke-width:12.5;stroke-linecap:round;stroke-linejoin:round;stroke-miterlimit:4;stroke-dasharray:none;stroke-dashoffset:67.27761078;stroke-opacity:1"/><path d="m -14809.282,2884.3175 0,-10.9453 c 0,-9.7866 7.878,-17.6655 17.665,-17.6655 l 78.368,0 c 9.786,0 17.666,7.8789 17.666,17.6655 l 0,221.3299 c 0,9.7866 -7.88,17.6654 -17.666,17.6654 l -78.368,0 c -9.787,0 -17.665,-7.8788 -17.665,-17.6654 l 0,-176.785" id="rect5659-4-6" style="opacity:1;fill:none;fill-opacity:1;fill-rule:nonzero;stroke:#000000;stroke-width:12.5;stroke-linecap:round;stroke-linejoin:round;stroke-miterlimit:4;stroke-dasharray:none;stroke-dashoffset:67.27761078;stroke-opacity:1"/><rect height="29.391794" id="rect5764-7" rx="11.95947" ry="10.993333" style="opacity:1;fill:none;fill-opacity:1;fill-rule:nonzero;stroke:#000000;stroke-width:12.5;stroke-linecap:round;stroke-linejoin:round;stroke-miterlimit:4;stroke-dasharray:none;stroke-dashoffset:67.27761078;stroke-opacity:1" width="75.824982" x="-14834.28" y="2886.7883"/><path d="m -15025.823,3194.3451 c -24.767,-13.8835 -49.243,-32.6947 -72.712,-68.6244" id="path4257-0-5-7" style="fill:none;fill-rule:evenodd;stroke:#000000;stroke-width:12.5;stroke-linecap:round;stroke-linejoin:round;stroke-miterlimit:4;stroke-dasharray:50, 25, 12.5, 25;stroke-dashoffset:107.8287735;stroke-opacity:1"/><g id="g5349-6-5-7" style="stroke-width:25.45729446;stroke-miterlimit:4;stroke-dasharray:none" transform="matrix(0.49101839,0,0,0.49101839,-10863.219,1291.6793)"><path d="m -8015.8672,3901.7832 c -7.9142,0 -14.2851,6.3709 -14.2851,14.2852 l 0,80 c 0,7.9143 6.3709,14.2871 14.2851,14.2871 l 15.7149,0 c 7.1838,0 13.0791,-5.2566 14.1093,-12.1446 l 33.8926,0 20.0059,20.0059 0,32.752 c -6.8875,1.0306 -12.1407,6.9258 -12.1407,14.1093 l 0,15.7149 c 0,7.9142 6.3689,14.2851 14.2832,14.2851 l 80,0 c 7.9143,0 14.2872,-6.3709 14.2872,-14.2851 l 0,-15.7149 c 0,-7.1838 -5.2566,-13.0792 -12.1446,-14.1093 l 0,-74.4382 -70.4432,-62.6048 -67.7404,0 c -1.0306,-6.8875 -6.9258,-12.1426 -14.1093,-12.1426 z" id="rect5157-8-3-5-2" style="opacity:1;fill:none;fill-opacity:1;fill-rule:nonzero;stroke:#000000;stroke-width:25.45729446;stroke-linecap:round;stroke-linejoin:round;stroke-miterlimit:4;stroke-dasharray:none;stroke-dashoffset:0;stroke-opacity:1"/><path d="m -8030.75,3994.6334 -44.6429,0 m 9.8763,-76.3675 35.0166,0" id="rect5324-4-4-2" style="opacity:1;fill:none;fill-opacity:1;fill-rule:nonzero;stroke:#000000;stroke-width:25.45729446;stroke-linecap:butt;stroke-linejoin:round;stroke-miterlimit:4;stroke-dasharray:none;stroke-dashoffset:0;stroke-opacity:1"/><path d="m -7928.6841,4094.6891 0,66.177 c 0,7.9142 6.3714,14.2857 14.2857,14.2857 l 47.7961,0 c 7.9143,0 14.2857,-6.3715 14.2857,-14.2857 l 0,-65.2931" id="rect5324-8-2-6-9" style="opacity:1;fill:none;fill-opacity:1;fill-rule:nonzero;stroke:#000000;stroke-width:25.45729446;stroke-linecap:butt;stroke-linejoin:round;stroke-miterlimit:4;stroke-dasharray:none;stroke-dashoffset:0;stroke-opacity:1"/></g></g></g></svg>